<svg xmlns="http://www.w3.org/2000/svg" viewBox="0 0 512 512" width="512" height="512">
  <rect width="512" height="512" rx="96" fill="#0f111a"/>
  <!-- Font Awesome cube path (fa-solid fa-cube) -->
  <g transform="translate(96, 56) scale(0.625)">
    <path fill="#6366f1" d="M234.5 5.7c13.9-5 29.1-5 43.1 0l192 68.3C495 83.4 512 107.5 512 134.6V377.4c0 27-17 51.2-42.5 60.6l-192 68.3c-13.9 5-29.1 5-43.1 0l-192-68.3C17 428.6 0 404.5 0 377.4V134.6c0-27 17-51.2 42.5-60.6l192-68.3zM256 66L96 123l160 57 160-57L256 66zM48 182.6V377.4c0 9 5.7 17 14.2 20.2L224 462.4V206.9L48 149.6v33zm416 0v-33L288 206.9V462.4l161.8-64.8c8.5-3.4 14.2-11.3 14.2-20.2V182.6z"/>
  </g>
</svg>
